<svg id="Layer_1" data-name="Layer 1" xmlns="http://www.w3.org/2000/svg" viewBox="0 0 2490.61 804.6"><defs><style>.cls-1{fill:#ff4500;}.cls-2{fill:#fff;}</style></defs><circle class="cls-1" cx="402.3" cy="402.3" r="402.3"/><path class="cls-2" d="M674.9,405.6a58.77,58.77,0,0,0-99.4-40.3,286,286,0,0,0-154.9-49.5l26.1-125.5,86.1,18.1a40.3,40.3,0,1,0,5.3-24.6l-98.6-19.7a12.46,12.46,0,0,0-14.9,9.5v.2L394.9,313.4A288.17,288.17,0,0,0,238,362.9a58.72,58.72,0,1,0-80.4,85.6,56.89,56.89,0,0,0,15.8,10.6,130.69,130.69,0,0,0,0,17.7c0,90.1,105,163.4,234.5,163.4S642.4,567,642.4,476.8a130.69,130.69,0,0,0,0-17.7A58.73,58.73,0,0,0,674.9,405.6ZM272.6,445.9a40.3,40.3,0,1,1,40.3,40.3A40.37,40.37,0,0,1,272.6,445.9ZM506.3,556.5a154.46,154.46,0,0,1-99.4,31,154.46,154.46,0,0,1-99.4-31,10.87,10.87,0,0,1,15.3-15.3,131.42,131.42,0,0,0,83.7,25.3A132.41,132.41,0,0,0,490.6,542a11.24,11.24,0,0,1,15.7,16.1h0v-1.6Zm-7.5-67.4c-22.2,0-40-19.6-40-41.8a40.33,40.33,0,1,1,42,41.8Z" transform="translate(-4.3 -3.3)"/><circle class="cls-1" cx="2244.5" cy="224.8" r="54.8"/><path class="cls-2" d="M1472.2,461.3a38.67,38.67,0,0,0,41.2-35.8c.1-1.2.1-2.6.1-3.9a138.77,138.77,0,0,0-2.7-22.2A151.35,151.35,0,0,0,1368,276.1c-80.3,0-147.4,73.8-147.4,164.4s66,164.5,147.3,164.5a146.24,146.24,0,0,0,113.9-47.6,31.81,31.81,0,0,0-2.1-45,30.66,30.66,0,0,0-2.9-2.4,33.49,33.49,0,0,0-40.9,4.2,100.71,100.71,0,0,1-68,29.1,91.66,91.66,0,0,1-84-82.4H1471ZM1367.6,338a88.41,88.41,0,0,1,80.3,68.5H1287.5A87.76,87.76,0,0,1,1367.6,338Z" transform="translate(-4.3 -3.3)"/><path class="cls-2" d="M1223.8,308a30.57,30.57,0,0,0-26.7-30.4A119,119,0,0,0,1086.7,318v-4a30.9,30.9,0,0,0-61.8,0V567a31.55,31.55,0,0,0,28.9,32.1,30.7,30.7,0,0,0,32.8-28.5,21.64,21.64,0,0,0,0-3.6V437.2a93.91,93.91,0,0,1,88.8-98.7,80.71,80.71,0,0,1,13.9.3h6.2A30.91,30.91,0,0,0,1223.8,308Z" transform="translate(-4.3 -3.3)"/><path class="cls-2" d="M2279.6,341.2a30.9,30.9,0,0,0-61.8,0h0V566.9a30.9,30.9,0,0,0,61.8,0Z" transform="translate(-4.3 -3.3)"/><path class="cls-2" d="M1823.6,169.7a30.81,30.81,0,0,0-30.8-30.8h0a30.81,30.81,0,0,0-30.8,30.8v138a107,107,0,0,0-78.9-31.6c-80.3,0-147.4,73.8-147.4,164.4S1601.8,605,1683.1,605a108.84,108.84,0,0,0,80.3-31.9,30.75,30.75,0,0,0,38.2,20.8,30.38,30.38,0,0,0,21.9-27.3l.1-396.9ZM1682.9,544.1c-47.3,0-85.8-46-85.8-102.9s38.2-102.9,85.8-102.9,85.8,46,85.8,102.9-38.2,102.4-85.6,102.4Z" transform="translate(-4.3 -3.3)"/><path class="cls-2" d="M2145.8,169.7a30.81,30.81,0,0,0-30.8-30.8h0a30.81,30.81,0,0,0-30.8,30.8h0v138a107,107,0,0,0-78.9-31.6c-80.3,0-147.4,73.8-147.4,164.4S1924,605,2005.3,605a108.84,108.84,0,0,0,80.3-31.9,30.75,30.75,0,0,0,38.2,20.8,30.38,30.38,0,0,0,21.9-27.3l.1-396.9ZM2005.2,544.1c-47.3,0-85.8-46-85.8-102.9s38.2-102.9,85.8-102.9,85.8,46,85.8,102.9-38.2,102.4-85.6,102.4Z" transform="translate(-4.3 -3.3)"/><path class="cls-2" d="M2439.7,566.8V338h26.7a26.75,26.75,0,0,0,28.3-25.1c0-.5.1-1.1.1-1.7a26.77,26.77,0,0,0-24.2-29,20.9,20.9,0,0,0-2.5-.1h-28.3V239.6a31.72,31.72,0,0,0-28.9-31.9,30.76,30.76,0,0,0-32.8,28.5,16.2,16.2,0,0,0-.1,2.2v44.4h-26.8a26.75,26.75,0,0,0-28.3,25.1c0,.5-.1,1.1-.1,1.7a26.77,26.77,0,0,0,24.2,29,20.9,20.9,0,0,0,2.5.1h26.7V566.9a30.81,30.81,0,0,0,30.8,30.8h0a30.78,30.78,0,0,0,32.6-28.9A12.75,12.75,0,0,0,2439.7,566.8Z" transform="translate(-4.3 -3.3)"/></svg>